<?xml version="1.0" encoding="utf-8"?>
<!-- Generator: Adobe Illustrator 23.0.1, SVG Export Plug-In . SVG Version: 6.00 Build 0)  -->
<svg version="1.1" id="Layer_1" xmlns="http://www.w3.org/2000/svg" xmlns:xlink="http://www.w3.org/1999/xlink" x="0px" y="0px"
	 viewBox="0 0 34.9 24" style="enable-background:new 0 0 34.9 24;" xml:space="preserve">
<style type="text/css">
	.st0{fill:#0F4683;}
</style>
<path class="st0" d="M26.2,24H8.7v-0.9c0-1.9,0.1-2.9,2.3-3.3c2.5-0.6,4.8-1,3.6-3.2c-3.3-6.4-0.9-10,2.8-10s6.1,3.5,2.8,9.9
	c-1.2,2.2,1.2,2.6,3.6,3.2c2.2,0.4,2.3,1.6,2.3,3.3C26.2,23.1,26.2,24,26.2,24z M33.2,20.8c-1.9-0.4-3.6-0.9-2.8-2.5
	c2.6-4.8,0.7-7.4-2-7.4c-1.9,0-3.2,1.2-3.2,3.3c0,5.7,3.3,2.6,3.2,9.8h6.6v-0.7C34.9,22,34.8,21.1,33.2,20.8z M0,24h6.6
	c0-7.1,3.2-4.1,3.2-9.8c0-2.2-1.5-3.3-3.2-3.3c-2.8,0-4.7,2.6-2,7.4c0.9,1.6-0.9,2-2.8,2.5C0.1,21.1,0,22,0,23.3V24z"/>
</svg>
