<?xml version="1.0" encoding="utf-8"?>
<!-- Generator: Adobe Illustrator 23.0.1, SVG Export Plug-In . SVG Version: 6.00 Build 0)  -->
<svg version="1.1" id="Layer_1" xmlns="http://www.w3.org/2000/svg" xmlns:xlink="http://www.w3.org/1999/xlink" x="0px" y="0px"
	 viewBox="0 0 24 24" style="enable-background:new 0 0 24 24;" xml:space="preserve">
<style type="text/css">
	.st0{fill:#0F4683;}
</style>
<path class="st0" d="M17,14.6v-2.3c-1.2-0.4-1.9-0.5-2.3-1.4c-0.4-0.9,0.1-1.5,0.6-2.6l-1.6-1.6c-1.1,0.5-1.7,1-2.6,0.6
	c-0.9-0.4-1-1.1-1.4-2.3H7.4C6.9,6.2,6.8,6.9,5.9,7.3h0C5,7.7,4.4,7.2,3.3,6.7L1.7,8.3c0.5,1.1,1,1.7,0.6,2.6
	c-0.4,0.9-1.1,1-2.3,1.4v2.3c1.2,0.4,1.9,0.5,2.3,1.4c0.4,0.9-0.1,1.5-0.6,2.6l1.6,1.6c1.1-0.5,1.7-1,2.6-0.6h0
	c0.9,0.4,1,1.1,1.4,2.3h2.3c0.4-1.2,0.5-1.9,1.4-2.3h0c0.9-0.4,1.5,0.1,2.6,0.6l1.6-1.6c-0.5-1.1-1-1.7-0.6-2.6
	C15.1,15.2,15.8,15.1,17,14.6z M8.5,16.3c-1.6,0-2.8-1.3-2.8-2.8s1.3-2.8,2.8-2.8s2.8,1.3,2.8,2.8S10.1,16.3,8.5,16.3z M24,20.5
	v-1.1c-0.5-0.2-0.9-0.3-1.1-0.7c-0.2-0.4,0-0.7,0.3-1.2l-0.8-0.8c-0.5,0.2-0.8,0.5-1.2,0.3s-0.5-0.5-0.7-1.1h-1.1
	c-0.2,0.5-0.3,0.9-0.7,1.1s-0.7,0-1.2-0.3l-0.8,0.8c0.2,0.5,0.5,0.8,0.3,1.2s-0.5,0.5-1.1,0.7v1.1c0.5,0.2,0.9,0.3,1.1,0.7
	c0.2,0.4,0,0.7-0.3,1.2l0.8,0.8c0.5-0.2,0.8-0.5,1.2-0.3c0.4,0.2,0.5,0.5,0.7,1.1h1.1c0.2-0.5,0.3-0.9,0.7-1.1h0
	c0.4-0.2,0.7,0,1.2,0.3l0.8-0.8c-0.2-0.5-0.5-0.8-0.3-1.2S23.5,20.7,24,20.5z M20,21.3c-0.7,0-1.3-0.6-1.3-1.3s0.6-1.3,1.3-1.3
	s1.3,0.6,1.3,1.3S20.7,21.3,20,21.3z"/>
</svg>
